<svg xmlns="http://www.w3.org/2000/svg" xmlns:xlink="http://www.w3.org/1999/xlink" width="70" height="70" viewBox="0 0 70 70">
  <defs>
    <clipPath id="clip-path">
      <rect id="Rectangle_12" data-name="Rectangle 12" width="70" height="70" transform="translate(445 978)" fill="#d2d2d2"/>
    </clipPath>
  </defs>
  <g id="Mask_Group_6" data-name="Mask Group 6" transform="translate(-445 -978)" clip-path="url(#clip-path)">
    <g id="satchel" transform="translate(445 978)">
      <g id="Group_42" data-name="Group 42">
        <g id="Group_41" data-name="Group 41">
          <path id="Path_20" data-name="Path 20" d="M62.24,29.1a22.356,22.356,0,0,0-5.012-14.145c0-.081.081-.162.081-.242V1.374A1.277,1.277,0,0,0,56.016.081H47.61a1.277,1.277,0,0,0-1.293,1.293v6.3a19.407,19.407,0,0,0-3.88-.808,7.573,7.573,0,0,0-14.873,0,28.7,28.7,0,0,0-3.8.727v-6.3A1.277,1.277,0,0,0,22.471,0H14.145a1.277,1.277,0,0,0-1.293,1.293v13.5A21.973,21.973,0,0,0,7.76,28.938L6.386,55.289C6.386,68.222,17.136,70,28.7,70H41.3c11.559,0,22.309-1.778,22.309-14.711ZM48.822,2.667h5.82v9.781a23.306,23.306,0,0,0-5.82-3.8V2.667ZM35,3.395A5.166,5.166,0,0,1,39.769,6.79H30.231A5.054,5.054,0,0,1,35,3.395ZM15.439,2.667h5.82V8.649a21.681,21.681,0,0,0-5.82,3.718v-9.7ZM27.968,9.376s1.111-.1,1.536-.081H39.931c.162,0,1.657.04,2.1.081a19.8,19.8,0,0,1,17.621,18.43h-16a5.293,5.293,0,0,0-5.173-4.042h-6.3A5.293,5.293,0,0,0,27,27.806H10.346A19.866,19.866,0,0,1,27.968,9.376ZM41.3,29.1a2.726,2.726,0,0,1-2.748,2.748h-6.3a2.748,2.748,0,1,1,0-5.5h6.3A2.726,2.726,0,0,1,41.3,29.1Zm0,38.395H28.7c-12.206,0-19.8-2.021-19.8-12.044l1.374-25.058H27.159a5.293,5.293,0,0,0,5.173,4.042h6.3a5.293,5.293,0,0,0,5.173-4.042H59.9L61.27,55.37C61.109,65.473,53.51,67.494,41.3,67.494Z"/>
        </g>
      </g>
      <g id="Group_44" data-name="Group 44">
        <g id="Group_43" data-name="Group 43">
          <path id="Path_21" data-name="Path 21" d="M38.961,39.042H31.848c-7.356,0-13.176,3.476-13.176,8v6.79c0,4.284,5.173,7.113,13.176,7.113h7.113c8,0,13.176-2.748,13.176-7.113v-6.79C52.136,42.6,46.316,39.042,38.961,39.042Zm-7.113,2.587h7.113c5.335,0,9.134,1.94,10.266,4.122H21.582C22.633,43.568,26.513,41.628,31.848,41.628Zm17.7,12.206c0,2.667-4.446,4.527-10.589,4.527H31.848c-6.143,0-10.589-1.94-10.589-4.527v-5.5H49.55v5.5Z"/>
        </g>
      </g>
    </g>
  </g>
</svg>
