<svg xmlns="http://www.w3.org/2000/svg" xmlns:xlink="http://www.w3.org/1999/xlink" width="70" height="70" viewBox="0 0 70 70">
  <defs>
    <clipPath id="clip-path">
      <rect id="Rectangle_12" data-name="Rectangle 12" width="70" height="70" transform="translate(445 978)" fill="#3c4559"/>
    </clipPath>
  </defs>
  <g id="Group_1" data-name="Group 1" transform="translate(-445 -978)" clip-path="url(#clip-path)">
    <g id="camera" transform="translate(445 978)">
      <g id="Group_28" data-name="Group 28">
        <g id="Group_27" data-name="Group 27">
          <path id="Path_2" data-name="Path 2" d="M67.671,16.036a7.526,7.526,0,0,0-5.523-2.329H51.1v-.133a5.974,5.974,0,0,0-1.8-4.325,6.088,6.088,0,0,0-4.325-1.8H25.019a6.134,6.134,0,0,0-6.188,6.122v.133H7.852a7.526,7.526,0,0,0-5.523,2.329A7.911,7.911,0,0,0,0,21.559V54.7a7.526,7.526,0,0,0,2.329,5.523,7.911,7.911,0,0,0,5.523,2.329h54.3a7.526,7.526,0,0,0,5.523-2.329A7.911,7.911,0,0,0,70,54.7V21.559A7.526,7.526,0,0,0,67.671,16.036ZM66.54,54.7h-.067a4.316,4.316,0,0,1-4.325,4.325H7.852A4.316,4.316,0,0,1,3.527,54.7V21.559a4.316,4.316,0,0,1,4.325-4.325H20.694a1.789,1.789,0,0,0,1.8-1.8v-1.93a2.5,2.5,0,0,1,2.6-2.6h19.9a2.5,2.5,0,0,1,2.6,2.6v1.93a1.789,1.789,0,0,0,1.8,1.8H62.215a4.316,4.316,0,0,1,4.325,4.325Z" fill="#3c4559"/>
          <path id="Path_3" data-name="Path 3" d="M35,21.759a16.357,16.357,0,1,0,11.578,4.791A16.4,16.4,0,0,0,35,21.759Zm9.049,25.485a12.852,12.852,0,0,1-18.1,0,12.72,12.72,0,0,1-3.726-9.049,13,13,0,0,1,3.726-9.049A12.72,12.72,0,0,1,35,25.418a13,13,0,0,1,9.049,3.726,12.72,12.72,0,0,1,3.726,9.049A12.451,12.451,0,0,1,44.049,47.243Z" fill="#3c4559"/>
          <circle id="Ellipse_8" data-name="Ellipse 8" cx="3.26" cy="3.26" r="3.26" transform="translate(55.428 21.692)" fill="#3c4559"/>
        </g>
      </g>
    </g>
  </g>
</svg>
