<svg xmlns="http://www.w3.org/2000/svg" xmlns:xlink="http://www.w3.org/1999/xlink" width="70" height="70" viewBox="0 0 70 70">
  <defs>
    <clipPath id="clip-path">
      <rect id="Rectangle_12" data-name="Rectangle 12" width="70" height="70" transform="translate(445 978)" fill="#d2d2d2"/>
    </clipPath>
  </defs>
  <g id="Mask_Group_7" data-name="Mask Group 7" transform="translate(-445 -978)" clip-path="url(#clip-path)">
    <g id="bike" transform="translate(445 978)">
      <g id="Group_45" data-name="Group 45">
        <path id="Path_22" data-name="Path 22" d="M55.391,29.765a14.716,14.716,0,0,0-4.626.73L46.139,19.783a4.789,4.789,0,0,0,3.53-4.5c0-2.557-2.435-4.748-5.357-4.748h-3.9A1.15,1.15,0,0,0,39.2,11.748a1.15,1.15,0,0,0,1.217,1.217h3.9c1.583,0,2.922,1.1,2.922,2.313s-1.339,2.313-2.922,2.313A1.15,1.15,0,0,0,43.1,18.809a1.73,1.73,0,0,0,.243.73l1.948,4.626L31.165,30.374,28.73,25.261h1.583a1.217,1.217,0,1,0,0-2.435h-6.7a1.217,1.217,0,1,0,0,2.435h2.435L29.1,31.835l-3.409,2.678a14.7,14.7,0,0,0-10.835-4.748,14.792,14.792,0,1,0,.122,29.583A14.751,14.751,0,0,0,29.7,45.713h6.7a.732.732,0,0,0,.487-.122h.122c.122,0,.122-.122.243-.122l.122-.122c.122-.122.122-.122.122-.243v-.122c0-.122,3.652-11.93,10.226-14.73l.487,1.217A14.7,14.7,0,0,0,40.3,44.617a14.852,14.852,0,0,0,29.7,0A14.7,14.7,0,0,0,55.391,29.765ZM14.974,56.913a12.262,12.262,0,0,1-12.3-12.3A12.47,12.47,0,0,1,15.1,32.2a12.205,12.205,0,0,1,8.887,3.774l-9.739,7.67a1.153,1.153,0,0,0-.365,1.339,1.169,1.169,0,0,0,1.1.852h12.3A12.222,12.222,0,0,1,14.974,56.913ZM18.626,43.4l6.939-5.478A13.271,13.271,0,0,1,27.391,43.4Zm11.2,0a14.817,14.817,0,0,0-2.435-6.939l2.922-2.313L34.574,43.4ZM36.4,41.33l-4.017-8.765,14-6.087.609,1.461C41.513,30.374,37.983,37.435,36.4,41.33ZM55.391,56.913a12.382,12.382,0,0,1-5.965-23.252L54.3,44.983a1.17,1.17,0,0,0,1.1.73.732.732,0,0,0,.487-.122,1.208,1.208,0,0,0,.609-1.583l-4.87-11.322a12.75,12.75,0,0,1,3.652-.609,12.418,12.418,0,0,1,.122,24.835Z"/>
      </g>
    </g>
  </g>
</svg>
