<svg xmlns="http://www.w3.org/2000/svg" xmlns:xlink="http://www.w3.org/1999/xlink" width="70" height="70" viewBox="0 0 70 70">
  <defs>
    <clipPath id="clip-path">
      <rect id="Rectangle_12" data-name="Rectangle 12" width="70" height="70" transform="translate(445 978)" fill="#d2d2d2"/>
    </clipPath>
  </defs>
  <g id="Mask_Group_5" data-name="Mask Group 5" transform="translate(-445 -978)" clip-path="url(#clip-path)">
    <g id="ring" transform="translate(445 978)">
      <g id="Group_40" data-name="Group 40">
        <path id="Path_19" data-name="Path 19" d="M63.886,27.135A31.163,31.163,0,0,0,46.694,9.942h-.131a10.364,10.364,0,0,0,.465-1.861,6.6,6.6,0,0,0-1.919-6.018A6.933,6.933,0,0,0,40.356,0a8.038,8.038,0,0,0-5.422,2.456A8.038,8.038,0,0,0,29.571.015,6.933,6.933,0,0,0,24.76,2.064a6.6,6.6,0,0,0-2.035,6,10.43,10.43,0,0,0,.581,1.875,31.163,31.163,0,1,0,40.58,17.193ZM26.795,4.2l-.058-.073a4.128,4.128,0,0,1,2.776-1.279c2.3,0,4.172,2.529,4.186,2.558a1.451,1.451,0,0,0,2.355.015s1.89-2.558,4.186-2.558a4.084,4.084,0,0,1,2.776,1.279A3.721,3.721,0,0,1,44.15,7.616C43.656,11.585,39,16.7,34.935,19c-4.07-2.34-8.721-7.442-9.273-11.352A3.721,3.721,0,0,1,26.795,4.2ZM40.909,17.995a21.614,21.614,0,1,1-12.064,0A24.227,24.227,0,0,0,34.28,21.9a1.454,1.454,0,0,0,1.308,0,24.233,24.233,0,0,0,5.378-3.837ZM61.183,49.277a28.258,28.258,0,1,1-36.728-36.69,21.989,21.989,0,0,0,2.224,3.125,24.521,24.521,0,1,0,16.5,0A22.154,22.154,0,0,0,45.4,12.587,28.242,28.242,0,0,1,61.183,49.277Z"/>
      </g>
    </g>
  </g>
</svg>
