<svg xmlns="http://www.w3.org/2000/svg" xmlns:xlink="http://www.w3.org/1999/xlink" width="70" height="70" viewBox="0 0 70 70">
  <defs>
    <clipPath id="clip-path">
      <rect id="Rectangle_12" data-name="Rectangle 12" width="70" height="70" transform="translate(445 978)" fill="#3c4559"/>
    </clipPath>
  </defs>
  <g id="Mask_Group_3" data-name="Mask Group 3" transform="translate(-445 -978)" clip-path="url(#clip-path)">
    <g id="laptop" transform="translate(445 978)">
      <g id="Group_32" data-name="Group 32">
        <g id="Group_31" data-name="Group 31">
          <path id="Path_6" data-name="Path 6" d="M69.914,61.9,63.937,45.442a3.438,3.438,0,0,0-.656-1.74,3.409,3.409,0,0,0,.656-2.011V7.611a3.452,3.452,0,0,0-3.452-3.438H9.515A3.452,3.452,0,0,0,6.063,7.611V41.69A3.424,3.424,0,0,0,6.719,43.7a3.424,3.424,0,0,0-.656,1.74L.086,61.9A1.424,1.424,0,0,0,0,62.389a3.452,3.452,0,0,0,3.438,3.438H66.562A3.452,3.452,0,0,0,70,62.389,1.423,1.423,0,0,0,69.914,61.9Zm-61-54.294a.6.6,0,0,1,.6-.585H60.5a.6.6,0,0,1,.6.585V41.69a.6.6,0,0,1-.6.6H9.515a.6.6,0,0,1-.6-.6Zm-.086,38.6a1.428,1.428,0,0,0,.086-.485.6.6,0,0,1,.6-.6H60.5a.6.6,0,0,1,.6.6,1.428,1.428,0,0,0,.086.485l1.969,5.421H6.862ZM41.512,62.989H28.5V58.98h13.01v4.009Zm25.05,0h-22.2v-4.28a2.725,2.725,0,0,0-2.853-2.553H28.5a2.725,2.725,0,0,0-2.853,2.553v4.28H3.452a.6.6,0,0,1-.571-.414L5.82,54.5H64.194l2.939,8.074A.6.6,0,0,1,66.562,62.989Z" fill="#3c4559"/>
        </g>
      </g>
      <g id="Group_34" data-name="Group 34">
        <g id="Group_33" data-name="Group 33">
          <path id="Path_7" data-name="Path 7" d="M54.979,10.207H15.036a2.853,2.853,0,0,0-2.853,2.853V36.241a2.853,2.853,0,0,0,2.853,2.853H54.979a2.853,2.853,0,0,0,2.853-2.853V13.06A2.853,2.853,0,0,0,54.979,10.207Zm0,26.034H15.036V13.06H54.979Z" fill="#3c4559"/>
        </g>
      </g>
    </g>
  </g>
</svg>
