<svg xmlns="http://www.w3.org/2000/svg" xmlns:xlink="http://www.w3.org/1999/xlink" width="50" height="50" viewBox="0 0 50 50">
  <defs>
    <clipPath id="clip-path">
      <rect id="Rectangle_25" data-name="Rectangle 25" width="50" height="50" transform="translate(405 6264)" fill="#ff4367"/>
    </clipPath>
  </defs>
  <g id="Mask_Group_18" data-name="Mask Group 18" transform="translate(-405 -6264)" clip-path="url(#clip-path)">
    <g id="sport-team" transform="translate(405 6264)">
      <path id="Path_69" data-name="Path 69" d="M24.913,6.354A.984.984,0,0,0,25.9,5.37V.983a.983.983,0,1,0-1.967,0V5.37a.984.984,0,0,0,.983.983Z" fill="#ff4367"/>
      <path id="Path_70" data-name="Path 70" d="M48.953,33.788l-1.737-1.733a3.293,3.293,0,0,0-3.9-.556l-3.274-3.27.159-.159a3.413,3.413,0,0,0,0-4.82,3.376,3.376,0,0,0-1.712-.926,3.435,3.435,0,0,0,.136-.957,3.406,3.406,0,0,0-2.709-3.336,3.434,3.434,0,0,0,.136-.957,3.4,3.4,0,0,0-2.709-3.334A3.4,3.4,0,0,0,29.708,9.4L23.22,8.168a3.5,3.5,0,0,0-3.005.4,1.776,1.776,0,0,0-.149.154,3.42,3.42,0,0,0-3.588.789,3.384,3.384,0,0,0-1,2.411,3.439,3.439,0,0,0,.135.957,3.406,3.406,0,0,0-2.708,3.332,3.429,3.429,0,0,0,.136.96,3.41,3.41,0,0,0-2.114,5.263,3.408,3.408,0,0,0-1.309,5.638l.159.158L6.505,31.5a3.288,3.288,0,0,0-3.72.645L1.046,33.877a3.285,3.285,0,0,0,0,4.64l2.17,2.167a.983.983,0,0,0,1.39-1.392l-2.17-2.167a1.319,1.319,0,0,1,0-1.856l1.739-1.734a1.317,1.317,0,0,1,1.6-.2.992.992,0,0,0,.124.151.979.979,0,0,0,.283.2l9.97,9.955a.969.969,0,0,0,.474.479,1.316,1.316,0,0,1-.055,1.8l-1.737,1.735a1.321,1.321,0,0,1-1.86,0l-2.17-2.17a.983.983,0,1,0-1.391,1.391l2.171,2.171a3.293,3.293,0,0,0,4.638,0l1.738-1.736a3.288,3.288,0,0,0,.46-4.062l3.685-3.681.012-.012c.422-.436,1.6-.355,2.734-.276a14.145,14.145,0,0,0,2.587.017l4.036,4.031a3.287,3.287,0,0,0,.558,3.894l1.738,1.736a3.288,3.288,0,0,0,4.639,0L48.954,38.428a3.285,3.285,0,0,0,0-4.64ZM22.854,10.1l4.266.808-2.554,2.553a6.2,6.2,0,0,1-1.53-1.112,4.525,4.525,0,0,1-1.447-2.236h0a.859.859,0,0,1,0-.1,3.333,3.333,0,0,1,1.27.086Zm-4.986.8a1.451,1.451,0,0,1,1.835-.174,7.035,7.035,0,0,0,1.974,3.041,7.283,7.283,0,0,0,2.834,1.756A1.444,1.444,0,0,1,22.3,17.369h0l-4.435-4.427a1.448,1.448,0,0,1,0-2.038ZM15.3,15.195a1.451,1.451,0,0,1,2.044,0l3.571,3.564A1.445,1.445,0,0,1,18.867,20.8h0l-2.709-2.709-.013-.012-.848-.847a1.443,1.443,0,0,1,0-2.039Zm-2.575,4.291a1.455,1.455,0,0,1,2.037-.007L17.477,22.2a1.444,1.444,0,0,1-2.045,2.038l-.985-.984h0l-1.723-1.721a1.447,1.447,0,0,1,0-2.041ZM11.01,24.64a1.454,1.454,0,0,1,2.047,0l.987.985A1.444,1.444,0,0,1,12,27.662l-.124-.123,0,0-.006-.005-.852-.849a1.444,1.444,0,0,1,0-2.04ZM31.052,35.818a.983.983,0,0,0-1.391,0l-.875.874c-.831.831-2.338.727-3.795.626-1.582-.11-3.218-.223-4.277.863L17.092,41.8,8.033,32.753l3.206-3.2a3.411,3.411,0,0,0,5.192-2.909c0-.008,0-.017,0-.025h.025a3.4,3.4,0,0,0,3.409-3.405c0-.008,0-.017,0-.025h.026A3.4,3.4,0,0,0,23.3,19.757h.026a3.412,3.412,0,0,0,2.911-5.185l2.81-2.809a1.443,1.443,0,0,1,.738-.393c.029,0,.058-.008.087-.013A1.441,1.441,0,0,1,31.1,13.8l-.856.852-.009.008-.986.984a.983.983,0,1,0,1.39,1.392l.859-.858h0l.13-.129a1.449,1.449,0,0,1,2.041,0,1.443,1.443,0,0,1,0,2.039l-.861.862h0l-.986.982a.983.983,0,0,0,1.388,1.394l.99-.986a1.443,1.443,0,0,1,2.043,2.04L34.523,24.1a.983.983,0,1,0,1.391,1.391l.841-.841.015-.013a1.443,1.443,0,0,1,2.043,2.04l-.855.854h0L36.6,28.89a.984.984,0,0,0,1.39,1.392l.664-.663L41.834,32.8l-9.058,9.047L29.531,38.6a3.868,3.868,0,0,0,.646-.52l.875-.873a.983.983,0,0,0,0-1.391Zm16.512,1.218L37.023,47.564a1.322,1.322,0,0,1-1.859,0l-1.738-1.736a1.315,1.315,0,0,1,0-1.853L43.967,33.447a1.322,1.322,0,0,1,1.86,0l1.737,1.733a1.318,1.318,0,0,1,0,1.856Z" fill="#ff4367"/>
      <path id="Path_71" data-name="Path 71" d="M11.853,5.524a.983.983,0,0,0,1.389-1.392L9.659.555A.983.983,0,0,0,8.27,1.948Z" fill="#ff4367"/>
      <path id="Path_72" data-name="Path 72" d="M37.278,5.812a.981.981,0,0,0,.7-.288l3.581-3.577A.983.983,0,1,0,40.164.556L36.583,4.133a.983.983,0,0,0,.7,1.679Z" fill="#ff4367"/>
      <path id="Path_73" data-name="Path 73" d="M6.135,42.305A.983.983,0,0,0,6.147,43.7l0,0a.983.983,0,1,0-.015-1.394Z" fill="#ff4367"/>
      <path id="Path_74" data-name="Path 74" d="M33.458,34.4a.984.984,0,1,0-.442-1.862l-.005,0a.983.983,0,0,0,.447,1.859Z" fill="#ff4367"/>
    </g>
  </g>
</svg>
