<svg xmlns="http://www.w3.org/2000/svg" xmlns:xlink="http://www.w3.org/1999/xlink" width="50" height="50" viewBox="0 0 50 50">
  <defs>
    <clipPath id="clip-path">
      <rect id="Rectangle_25" data-name="Rectangle 25" width="50" height="50" transform="translate(405 6264)" fill="#fff"/>
    </clipPath>
  </defs>
  <g id="Mask_Group_14" data-name="Mask Group 14" transform="translate(-405 -6264)" clip-path="url(#clip-path)">
    <g id="hand" transform="translate(405 6265.765)">
      <path id="Path_53" data-name="Path 53" d="M22.5,30.9a.977.977,0,1,0-1.382,0A.978.978,0,0,0,22.5,30.9Zm0,0" fill="#fff"/>
      <path id="Path_54" data-name="Path 54" d="M22.852,7.911V9.864a5.86,5.86,0,0,0,11.719,0V7.911a.977.977,0,1,0,0-1.953H32.618a.977.977,0,0,0,0,1.953V9.864a3.906,3.906,0,0,1-7.813,0V7.911a.977.977,0,1,0,0-1.953H22.852a.977.977,0,1,0,0,1.953Zm0,0" fill="#fff"/>
      <path id="Path_55" data-name="Path 55" d="M11.35,46.186a.977.977,0,0,0,1.381,0l3-3a4.521,4.521,0,0,0,1.311-3.664l1.075-1.038a4.531,4.531,0,0,1,3.159-1.276H34.132a8.74,8.74,0,0,0,6.13-2.491.916.916,0,0,0,.069-.075l8.749-10.506a3.907,3.907,0,0,0-5.946-5.069l-.945.977V.977A.977.977,0,0,0,41.212,0h-25.1a.977.977,0,0,0-.977.977v21.88a11.747,11.747,0,0,0-8.4,6.573A4.51,4.51,0,0,0,3.3,30.755l-3.014,3a.977.977,0,0,0,0,1.383ZM40.236,1.953V22.065L37.41,24.987a3.924,3.924,0,0,0-3.033-1.451H23.053a.539.539,0,0,1-.2-.042,12.62,12.62,0,0,0-4.787-.935c-.327,0-.653.012-.977.033V1.953ZM16.254,24.641a11.1,11.1,0,0,1,5.867.663,2.485,2.485,0,0,0,.932.185H34.376a1.953,1.953,0,1,1,0,3.906h-8.5a.977.977,0,1,0,0,1.953h8.5a3.911,3.911,0,0,0,3.906-3.906,3.95,3.95,0,0,0-.035-.513c.2-.209,6.107-6.314,6.311-6.525.015-.016.03-.032.043-.048a1.953,1.953,0,1,1,2.981,2.525L38.864,33.352a6.8,6.8,0,0,1-4.732,1.9H21.274a6.473,6.473,0,0,0-4.515,1.823l-.431.416a4.546,4.546,0,0,0-.6-.739l-6-6a4.56,4.56,0,0,0-1.077-.8,9.777,9.777,0,0,1,7.6-5.319Zm-11.572,7.5a2.59,2.59,0,0,1,3.668,0l6,6a2.591,2.591,0,0,1,0,3.668l-2.309,2.309L2.36,34.448Zm0,0" fill="#fff"/>
    </g>
  </g>
</svg>
