<svg xmlns="http://www.w3.org/2000/svg" xmlns:xlink="http://www.w3.org/1999/xlink" width="50" height="50" viewBox="0 0 50 50">
  <defs>
    <clipPath id="clip-path">
      <rect id="Rectangle_25" data-name="Rectangle 25" width="50" height="50" transform="translate(405 6264)" fill="#ff4367"/>
    </clipPath>
  </defs>
  <g id="Mask_Group_15" data-name="Mask Group 15" transform="translate(-405 -6264)" clip-path="url(#clip-path)">
    <g id="sell" transform="translate(405 6265.953)">
      <path id="Path_56" data-name="Path 56" d="M7.422,14.648a.977.977,0,1,0-.69-.286A.984.984,0,0,0,7.422,14.648Zm0,0" fill="#ff4367"/>
      <path id="Path_57" data-name="Path 57" d="M48.4,27.989a3.933,3.933,0,0,0-4.239-.27l-.61.34V2.93A2.933,2.933,0,0,0,40.625,0H9.375a2.933,2.933,0,0,0-2.93,2.93V9.766a.977.977,0,0,0,1.953,0V2.93a.977.977,0,0,1,.977-.977H18.75v9.98a.977.977,0,0,0,1.667.691l1.946-1.946,1.946,1.946a.976.976,0,0,0,1.381,0l1.946-1.946,1.946,1.946a.976.976,0,0,0,1.667-.69V1.953h9.375a.977.977,0,0,1,.977.977V29.147l-6,3.344a24.2,24.2,0,0,1-6.573,2.5,4.262,4.262,0,0,0-2.2-5.216L19.835,26.4a10.005,10.005,0,0,0-6.28-.793L8.379,26.643a.973.973,0,0,0,.019-.193V17.578a.977.977,0,0,0-1.953,0v8.757H.977A.976.976,0,0,0,0,27.311V45.117a.976.976,0,0,0,.977.977H6.445a.976.976,0,0,0,.977-.977v-.391H19.551A44.005,44.005,0,0,0,44.722,36.86l3.588-2.486a3.925,3.925,0,0,0,.094-6.385ZM29.3,9.576l-.97-.97a.976.976,0,0,0-1.381,0L25,10.552,23.054,8.606a.976.976,0,0,0-1.381,0l-.97.97V1.953H29.3ZM5.469,44.14H1.953V28.288H5.469ZM47.2,32.769,43.61,35.254a42.061,42.061,0,0,1-24.059,7.519H7.422V28.827l6.518-1.308a8.039,8.039,0,0,1,5.047.638l7,3.374a2.326,2.326,0,0,1-1.733,4.305l-7.706-2.518a.976.976,0,1,0-.607,1.856l7.706,2.518a4.308,4.308,0,0,0,1.34.215,4.257,4.257,0,0,0,2.2-.614,26.151,26.151,0,0,0,9.366-3.1l6.445-3.59a.961.961,0,0,0,.123-.068l2-1.114a1.976,1.976,0,0,1,2.13.136,1.972,1.972,0,0,1-.047,3.208Zm0,0" fill="#ff4367"/>
      <path id="Path_58" data-name="Path 58" d="M36.79,20.325a.977.977,0,1,0,0-1.953H28.509a.977.977,0,0,0,0,1.953Zm0,0" fill="#ff4367"/>
      <path id="Path_59" data-name="Path 59" d="M24.343,23.124a.976.976,0,0,0,.977.977H36.79a.977.977,0,0,0,0-1.953H25.319A.976.976,0,0,0,24.343,23.124Zm0,0" fill="#ff4367"/>
      <path id="Path_60" data-name="Path 60" d="M22.1,23.814a.976.976,0,1,0-.69.286A.984.984,0,0,0,22.1,23.814Zm0,0" fill="#ff4367"/>
    </g>
  </g>
</svg>
