<svg xmlns="http://www.w3.org/2000/svg" xmlns:xlink="http://www.w3.org/1999/xlink" width="50" height="50" viewBox="0 0 50 50">
  <defs>
    <clipPath id="clip-path">
      <rect id="Rectangle_25" data-name="Rectangle 25" width="50" height="50" transform="translate(405 6264)" fill="#ff4367"/>
    </clipPath>
  </defs>
  <g id="Mask_Group_19" data-name="Mask Group 19" transform="translate(-405 -6264)" clip-path="url(#clip-path)">
    <g id="pay" transform="translate(405 6264)">
      <g id="Group_107" data-name="Group 107">
        <g id="Group_106" data-name="Group 106">
          <path id="Path_75" data-name="Path 75" d="M39.75,37.619a.976.976,0,0,0-1.359.246,11.056,11.056,0,0,1-1,1.242,11.912,11.912,0,0,1-.955.9A.977.977,0,1,0,37.7,41.492a13.68,13.68,0,0,0,1.117-1.053A13,13,0,0,0,40,38.978.976.976,0,0,0,39.75,37.619Z" fill="#ff4367"/>
        </g>
      </g>
      <g id="Group_109" data-name="Group 109">
        <g id="Group_108" data-name="Group 108">
          <path id="Path_76" data-name="Path 76" d="M35.5,42a.977.977,0,0,0-1.3-.469l-.031.014a.977.977,0,1,0,.789,1.787l.071-.032A.977.977,0,0,0,35.5,42Z" fill="#ff4367"/>
        </g>
      </g>
      <g id="Group_111" data-name="Group 111">
        <g id="Group_110" data-name="Group 110">
          <path id="Path_77" data-name="Path 77" d="M47.083,2.539H2.917A2.921,2.921,0,0,0,0,5.457V32.825a2.921,2.921,0,0,0,2.917,2.917H23.482a16.322,16.322,0,0,0,4.566,7.974c2.515,2.443,5.4,3.744,6.512,3.744s4-1.3,6.512-3.744a16.323,16.323,0,0,0,4.566-7.974h1.444A2.921,2.921,0,0,0,50,32.825V5.457A2.921,2.921,0,0,0,47.083,2.539Zm-2.942,29.2a14.415,14.415,0,0,1-4.368,10.515,12.229,12.229,0,0,1-5.213,3.252,12.228,12.228,0,0,1-5.213-3.252A14.416,14.416,0,0,1,24.98,31.74V26.931a43.708,43.708,0,0,0,9.581-4.052,45.223,45.223,0,0,0,9.58,4.051Zm3.906,1.085a.965.965,0,0,1-.964.964h-1.1a18.02,18.02,0,0,0,.116-2.049V26.19a.977.977,0,0,0-.721-.942,43.08,43.08,0,0,1-10.32-4.339.977.977,0,0,0-.987,0,41.9,41.9,0,0,1-10.319,4.339.977.977,0,0,0-.721.942v5.55a18,18,0,0,0,.116,2.049H2.917a.965.965,0,0,1-.964-.964V16.211H48.047Zm0-18.567H1.953V10.352H48.047Zm0-5.859H1.953V5.457a.965.965,0,0,1,.964-.964H47.083a.966.966,0,0,1,.964.964Z" fill="#ff4367"/>
        </g>
      </g>
      <g id="Group_113" data-name="Group 113">
        <g id="Group_112" data-name="Group 112">
          <path id="Path_78" data-name="Path 78" d="M11.718,23.047a4.4,4.4,0,0,0-1.708.346,4.394,4.394,0,1,0,0,8.1,4.394,4.394,0,1,0,1.708-8.443ZM8.3,29.883a2.441,2.441,0,1,1,2.441-2.441A2.444,2.444,0,0,1,8.3,29.883Zm3.66-.012a4.383,4.383,0,0,0,0-4.859,2.441,2.441,0,0,1,0,4.859Z" fill="#ff4367"/>
        </g>
      </g>
      <g id="Group_115" data-name="Group 115">
        <g id="Group_114" data-name="Group 114">
          <path id="Path_79" data-name="Path 79" d="M9.906,18.652H4.883a.977.977,0,1,0,0,1.953H9.906a.977.977,0,1,0,0-1.953Z" fill="#ff4367"/>
        </g>
      </g>
      <g id="Group_117" data-name="Group 117">
        <g id="Group_116" data-name="Group 116">
          <path id="Path_80" data-name="Path 80" d="M12.793,18.652h-.046a.977.977,0,0,0,0,1.953h.046a.977.977,0,1,0,0-1.953Z" fill="#ff4367"/>
        </g>
      </g>
      <g id="Group_119" data-name="Group 119">
        <g id="Group_118" data-name="Group 118">
          <path id="Path_81" data-name="Path 81" d="M39.921,29.495a.977.977,0,0,0-1.381,0l-5.222,5.222L30.581,31.98A.977.977,0,0,0,29.2,33.361l3.427,3.427a.976.976,0,0,0,1.381,0l5.913-5.912A.977.977,0,0,0,39.921,29.495Z" fill="#ff4367"/>
        </g>
      </g>
    </g>
  </g>
</svg>
