<svg xmlns="http://www.w3.org/2000/svg" xmlns:xlink="http://www.w3.org/1999/xlink" width="50" height="50" viewBox="0 0 50 50">
  <defs>
    <clipPath id="clip-path">
      <rect id="Rectangle_25" data-name="Rectangle 25" width="50" height="50" transform="translate(405 6264)" fill="#ff4367"/>
    </clipPath>
  </defs>
  <g id="Mask_Group_17" data-name="Mask Group 17" transform="translate(-405 -6264)" clip-path="url(#clip-path)">
    <g id="wallet" transform="translate(405.769 6264)">
      <path id="Path_66" data-name="Path 66" d="M20.528,41.954a.977.977,0,1,0,.711,1.331.976.976,0,0,0-.711-1.331Zm0,0" fill="#ff4367"/>
      <path id="Path_67" data-name="Path 67" d="M48.415,27.851a4.333,4.333,0,0,0-4.283-3.714h-.346V18.051a3.462,3.462,0,0,0-3.458-3.458h-.653l1.791-2.568a3.465,3.465,0,0,0-.943-4.884C29.584-.028,30.332.426,29.872.243a3.487,3.487,0,0,0-4.155,1.269L22.983,5.535,19.542,3.28a3.033,3.033,0,0,0-4.151.828L8.262,14.592H4.121A4.125,4.125,0,0,0,0,18.713c0,.03,0,.059,0,.089,0,.015,0,.03,0,.045V45.8A4.209,4.209,0,0,0,4.2,50H39.583a4.208,4.208,0,0,0,4.2-4.2V43.458h.2a4.481,4.481,0,0,0,4.476-4.476c0-11.841.022-10.92-.044-11.13ZM44.133,26.09a2.376,2.376,0,0,1,2.374,2.374,2.663,2.663,0,0,1-.349,1.427,2.562,2.562,0,0,1-2.37,1.162V26.09ZM24.622,6.6a6.739,6.739,0,0,0,8.815-1.766l2.122,1.39a6.416,6.416,0,0,0,1.73,8.378l-1.629,2.335H17.594L24.622,6.6Zm2.711-3.988A1.52,1.52,0,0,1,29.414,2.2L31.8,3.759a4.791,4.791,0,0,1-6.076,1.22Zm12.12,6.164a1.512,1.512,0,0,1,.412,2.132L38.407,13a4.465,4.465,0,0,1-1.212-5.7ZM17.006,5.205a1.07,1.07,0,0,1,1.465-.292l3.413,2.237-6.652,9.784h-6.2ZM4.121,16.546H6.934c-.443.706-.7.879-.723,1.312a.977.977,0,0,0,.975,1.031H36.169a.976.976,0,0,0,.8-.418l1.343-1.925h2.016a1.507,1.507,0,0,1,1.5,1.5V20.88H4.121c-2.922,0-2.81-4.334,0-4.334ZM41.833,45.8a2.253,2.253,0,0,1-2.25,2.25H4.2a2.253,2.253,0,0,1-2.25-2.25V43.888H16.431a.977.977,0,0,0,0-1.954H1.954V22.222a4.138,4.138,0,0,0,1.334.527c1.017.209.552.016,38.546.085v8.22H38.259a6.2,6.2,0,0,0,0,12.405h3.574Zm4.673-6.815A2.526,2.526,0,0,1,43.984,41.5H38.259a4.249,4.249,0,0,1,0-8.5H44.1a4.358,4.358,0,0,0,2.411-.728Zm0,0" fill="#ff4367"/>
      <path id="Path_68" data-name="Path 68" d="M38.6,33.82a3.441,3.441,0,1,0,3.441,3.441A3.445,3.445,0,0,0,38.6,33.82Zm0,4.929a1.488,1.488,0,1,1,1.488-1.488A1.489,1.489,0,0,1,38.6,38.749Zm0,0" fill="#ff4367"/>
    </g>
  </g>
</svg>
