<svg xmlns="http://www.w3.org/2000/svg" xmlns:xlink="http://www.w3.org/1999/xlink" width="50" height="50" viewBox="0 0 50 50">
  <defs>
    <clipPath id="clip-path">
      <rect id="Rectangle_25" data-name="Rectangle 25" width="50" height="50" transform="translate(405 6264)" fill="#ff4367"/>
    </clipPath>
  </defs>
  <g id="Mask_Group_16" data-name="Mask Group 16" transform="translate(-405 -6264)" clip-path="url(#clip-path)">
    <g id="talk" transform="translate(405 6266.539)">
      <path id="Path_61" data-name="Path 61" d="M25.977,34.18A.977.977,0,1,1,25,33.2.976.976,0,0,1,25.977,34.18Zm0,0" fill="#ff4367"/>
      <path id="Path_62" data-name="Path 62" d="M45.93,9.832a4.887,4.887,0,0,0-5.7,4.816V25.391H34.375a2.916,2.916,0,0,0-.977.168V21.484h.977a2.933,2.933,0,0,0,2.93-2.93V14.648a.976.976,0,0,0-.977-.977H13.672a.976.976,0,0,0-.977.977v3.906a2.933,2.933,0,0,0,2.93,2.93H16.6v4.074a2.916,2.916,0,0,0-.977-.168H9.766V14.648a4.886,4.886,0,0,0-5.7-4.816A5.038,5.038,0,0,0,0,14.858V28.32A4.888,4.888,0,0,0,4.883,33.2h5.859v9.766H.977a.977.977,0,0,0,0,1.953H49.023a.977.977,0,0,0,0-1.953H39.258V33.2h5.859A4.888,4.888,0,0,0,50,28.32V14.858a5.038,5.038,0,0,0-4.07-5.025ZM14.648,18.555v-2.93h20.7v2.93a.977.977,0,0,1-.977.977H15.625A.977.977,0,0,1,14.648,18.555Zm16.8,2.93V42.969H18.555V21.484ZM11.719,31.25H4.883a2.933,2.933,0,0,1-2.93-2.93V14.858a3.071,3.071,0,0,1,2.43-3.1,2.931,2.931,0,0,1,3.429,2.888V26.367a.976.976,0,0,0,.977.977h6.836a.977.977,0,0,1,.977.977V42.969H12.7V32.227a.976.976,0,0,0-.977-.977Zm36.328-2.93a2.933,2.933,0,0,1-2.93,2.93H38.281a.976.976,0,0,0-.977.977V42.969H33.4V28.32a.977.977,0,0,1,.977-.977h6.836a.976.976,0,0,0,.977-.977V14.648a2.931,2.931,0,0,1,3.429-2.888,3.071,3.071,0,0,1,2.43,3.1Zm0,0" fill="#ff4367"/>
      <path id="Path_63" data-name="Path 63" d="M25,31.25a.976.976,0,0,0,.977-.977V26.367a.977.977,0,0,0-1.953,0v3.906A.976.976,0,0,0,25,31.25Zm0,0" fill="#ff4367"/>
      <path id="Path_64" data-name="Path 64" d="M4.883,9.766A4.883,4.883,0,1,0,0,4.883,4.888,4.888,0,0,0,4.883,9.766Zm0-7.812a2.93,2.93,0,1,1-2.93,2.93A2.933,2.933,0,0,1,4.883,1.953Zm0,0" fill="#ff4367"/>
      <path id="Path_65" data-name="Path 65" d="M45.117,0A4.883,4.883,0,1,0,50,4.883,4.888,4.888,0,0,0,45.117,0Zm0,7.812a2.93,2.93,0,1,1,2.93-2.93A2.933,2.933,0,0,1,45.117,7.812Zm0,0" fill="#ff4367"/>
    </g>
  </g>
</svg>
