<svg xmlns="http://www.w3.org/2000/svg" xmlns:xlink="http://www.w3.org/1999/xlink" width="70" height="70" viewBox="0 0 70 70">
  <defs>
    <clipPath id="clip-path">
      <rect id="Rectangle_12" data-name="Rectangle 12" width="70" height="70" transform="translate(445 978)" fill="#d2d2d2"/>
    </clipPath>
  </defs>
  <g id="Mask_Group_4" data-name="Mask Group 4" transform="translate(-445 -978)" clip-path="url(#clip-path)">
    <g id="speaker" transform="translate(456.091 978)">
      <path id="Path_8" data-name="Path 8" d="M42.856,0H4.962A4.944,4.944,0,0,0,.024,4.938V65.062A4.944,4.944,0,0,0,4.962,70H42.856a4.944,4.944,0,0,0,4.938-4.938V4.938A4.944,4.944,0,0,0,42.856,0Zm2.175,65.062a2.178,2.178,0,0,1-2.175,2.175H4.962a2.178,2.178,0,0,1-2.175-2.175V4.938A2.178,2.178,0,0,1,4.962,2.763H42.856a2.177,2.177,0,0,1,2.175,2.175Zm0,0"/>
      <path id="Path_9" data-name="Path 9" d="M8.093,12.077a4,4,0,1,0-4-4,4,4,0,0,0,4,4Zm0-5.244A1.239,1.239,0,1,1,6.854,8.073,1.24,1.24,0,0,1,8.093,6.833Zm0,0"/>
      <path id="Path_10" data-name="Path 10" d="M39.725,4.07a4,4,0,1,0,4,4A4,4,0,0,0,39.725,4.07Zm0,5.244a1.24,1.24,0,1,1,1.24-1.241,1.24,1.24,0,0,1-1.24,1.241Zm0,0"/>
      <path id="Path_11" data-name="Path 11" d="M8.093,57.924a4,4,0,1,0,4,4,4,4,0,0,0-4-4Zm0,5.243a1.239,1.239,0,1,1,1.239-1.239A1.239,1.239,0,0,1,8.093,63.167Zm0,0"/>
      <path id="Path_12" data-name="Path 12" d="M39.725,57.924a4,4,0,1,0,4,4,4,4,0,0,0-4-4Zm0,5.243a1.239,1.239,0,1,1,1.24-1.239A1.239,1.239,0,0,1,39.725,63.167Zm0,0"/>
      <path id="Path_13" data-name="Path 13" d="M23.909,30.566A10.819,10.819,0,1,0,13.09,19.747,10.82,10.82,0,0,0,23.909,30.566Zm0-18.874a8.056,8.056,0,1,1-8.056,8.055,8.056,8.056,0,0,1,8.056-8.055Zm0,0"/>
      <path id="Path_14" data-name="Path 14" d="M23.909,23.995a4.248,4.248,0,1,0-4.247-4.248A4.248,4.248,0,0,0,23.909,23.995Zm0-5.735a1.484,1.484,0,1,1-1.484,1.484,1.484,1.484,0,0,1,1.484-1.484Zm0,0"/>
      <path id="Path_15" data-name="Path 15" d="M23.909,32.5A14.286,14.286,0,1,0,38.2,46.786,14.286,14.286,0,0,0,23.909,32.5Zm0,25.809A11.523,11.523,0,1,1,35.432,46.786,11.522,11.522,0,0,1,23.909,58.309Zm0,0"/>
      <path id="Path_16" data-name="Path 16" d="M23.909,42.538a4.248,4.248,0,1,0,4.248,4.247,4.247,4.247,0,0,0-4.248-4.247Zm0,5.734a1.484,1.484,0,1,1,1.484-1.484,1.484,1.484,0,0,1-1.484,1.484Zm0,0"/>
      <path id="Path_17" data-name="Path 17" d="M26.88,62.977H20.938a1.382,1.382,0,1,0,0,2.764H26.88a1.382,1.382,0,1,0,0-2.764Zm0,0"/>
      <path id="Path_18" data-name="Path 18" d="M20.938,7.024H26.88a1.382,1.382,0,1,0,0-2.764H20.938a1.382,1.382,0,1,0,0,2.764Zm0,0"/>
    </g>
  </g>
</svg>
