<svg xmlns="http://www.w3.org/2000/svg" xmlns:xlink="http://www.w3.org/1999/xlink" width="70" height="70" viewBox="0 0 70 70">
  <defs>
    <clipPath id="clip-path">
      <rect id="Rectangle_12" data-name="Rectangle 12" width="70" height="70" transform="translate(445 978)" fill="#d2d2d2"/>
    </clipPath>
  </defs>
  <g id="Mask_Group_10" data-name="Mask Group 10" transform="translate(-445 -978)" clip-path="url(#clip-path)">
    <g id="clock" transform="translate(445 978)">
      <g id="Group_48" data-name="Group 48">
        <g id="Group_47" data-name="Group 47">
          <path id="Path_26" data-name="Path 26" d="M59.747,10.253A35,35,0,1,0,10.253,59.747,35,35,0,0,0,70,35,34.717,34.717,0,0,0,59.747,10.253ZM57.8,57.8a32.22,32.22,0,0,1-45.606,0A31.763,31.763,0,0,1,2.74,35,31.763,31.763,0,0,1,12.2,12.2,32.248,32.248,0,1,1,57.8,57.8Z"/>
        </g>
      </g>
      <g id="Group_50" data-name="Group 50">
        <g id="Group_49" data-name="Group 49">
          <path id="Path_27" data-name="Path 27" d="M54.091,15.909A27.07,27.07,0,0,0,35,7.955a26.7,26.7,0,0,0-19.091,7.955A27.07,27.07,0,0,0,7.955,35,27.159,27.159,0,0,0,35,62.045a26.7,26.7,0,0,0,19.091-7.955A27.07,27.07,0,0,0,62.045,35,26.7,26.7,0,0,0,54.091,15.909ZM52.146,52.146A24.306,24.306,0,0,1,10.694,35,24.444,24.444,0,0,1,35,10.694,24.444,24.444,0,0,1,59.306,35,23.957,23.957,0,0,1,52.146,52.146Z"/>
        </g>
      </g>
      <g id="Group_52" data-name="Group 52">
        <g id="Group_51" data-name="Group 51">
          <path id="Path_28" data-name="Path 28" d="M44.811,33.674h-6.1a3.93,3.93,0,0,0-2.3-2.3V18.119a1.326,1.326,0,0,0-2.652,0V31.376A3.859,3.859,0,0,0,31.2,35.088,3.687,3.687,0,0,0,35,38.977a3.988,3.988,0,0,0,3.712-2.652h6.1A1.3,1.3,0,0,0,46.136,35,1.359,1.359,0,0,0,44.811,33.674Z"/>
        </g>
      </g>
    </g>
  </g>
</svg>
